<?xml version="1.0" encoding="UTF-8" standalone="no"?>
<!-- Created with Inkscape (http://www.inkscape.org/) -->
<svg
   xmlns:dc="http://purl.org/dc/elements/1.1/"
   xmlns:cc="http://web.resource.org/cc/"
   xmlns:rdf="http://www.w3.org/1999/02/22-rdf-syntax-ns#"
   xmlns:svg="http://www.w3.org/2000/svg"
   xmlns="http://www.w3.org/2000/svg"
   xmlns:sodipodi="http://sodipodi.sourceforge.net/DTD/sodipodi-0.dtd"
   xmlns:inkscape="http://www.inkscape.org/namespaces/inkscape"
   width="16"
   height="16"
   id="svg2"
   sodipodi:version="0.32"
   inkscape:version="0.45.1"
   version="1.0"
   sodipodi:docbase="/home/pierre/system/src/undertype/tools/typotek/src/icons"
   sodipodi:docname="action-empty.svg"
   inkscape:output_extension="org.inkscape.output.svg.inkscape"
   inkscape:export-filename="/home/pierre/system/src/undertype/tools/typotek/src/icons/action-empty-128.png"
   inkscape:export-xdpi="720"
   inkscape:export-ydpi="720">
  <defs
     id="defs4" />
  <sodipodi:namedview
     id="base"
     pagecolor="#ffffff"
     bordercolor="#666666"
     borderopacity="1.0"
     inkscape:pageopacity="0.0"
     inkscape:pageshadow="2"
     inkscape:zoom="28.9375"
     inkscape:cx="8"
     inkscape:cy="8"
     inkscape:document-units="px"
     inkscape:current-layer="layer1"
     width="16px"
     height="16px"
     gridempspacing="4"
     showgrid="true"
     inkscape:grid-points="true"
     inkscape:window-width="772"
     inkscape:window-height="670"
     inkscape:window-x="311"
     inkscape:window-y="86" />
  <metadata
     id="metadata7">
    <rdf:RDF>
      <cc:Work
         rdf:about="">
        <dc:format>image/svg+xml</dc:format>
        <dc:type
           rdf:resource="http://purl.org/dc/dcmitype/StillImage" />
      </cc:Work>
    </rdf:RDF>
  </metadata>
  <g
     inkscape:label="Calque 1"
     inkscape:groupmode="layer"
     id="layer1">
    <path
       style="fill:#000000;fill-rule:evenodd;stroke:#000000;stroke-width:0;stroke-linecap:butt;stroke-linejoin:miter;stroke-opacity:1;stroke-miterlimit:4;stroke-dasharray:none;fill-opacity:1"
       d="M 1,8 L 4,2 L 15,2 L 15,14 L 4,14 L 1,8 z "
       id="path2160"
       sodipodi:nodetypes="cccccc" />
    <path
       style="fill:#ffffff;fill-opacity:1;fill-rule:nonzero;stroke:#ffffff;stroke-width:0;stroke-linecap:round;stroke-linejoin:round;stroke-miterlimit:4;stroke-dashoffset:3;stroke-opacity:1"
       d="M 8.96875 4 C 6.76075 4 4.96875 5.792 4.96875 8 C 4.96875 10.208 6.7607505 12 8.96875 12 C 11.17675 12 12.96875 10.208 12.96875 8 C 12.96875 5.792 11.17675 4 8.96875 4 z M 8.96875 4.65625 C 10.833986 4.6562499 12.34375 6.1755524 12.34375 8.03125 C 12.34375 9.8869484 10.833986 11.375 8.96875 11.375 C 7.1035146 11.375 5.59375 9.886948 5.59375 8.03125 C 5.5937499 6.1755528 7.1035144 4.65625 8.96875 4.65625 z "
       id="path3134" />
    <path
       style="fill:#ffffff;fill-rule:evenodd;stroke:#000000;stroke-width:0;stroke-linecap:butt;stroke-linejoin:miter;stroke-miterlimit:4;stroke-dasharray:none;stroke-opacity:1"
       d="M 5,11 L 6,12 L 7,11 L 6,10 L 5,11 z "
       id="path3140" />
    <path
       style="fill:#ffffff;fill-rule:evenodd;stroke:#000000;stroke-width:0;stroke-linecap:butt;stroke-linejoin:miter;stroke-miterlimit:4;stroke-dasharray:none;stroke-opacity:1"
       d="M 7,9 L 10,6 L 11,7 L 8,10 L 7,9 z "
       id="path3142" />
    <path
       style="fill:#ffffff;fill-rule:evenodd;stroke:#000000;stroke-width:0;stroke-linecap:butt;stroke-linejoin:miter;stroke-miterlimit:4;stroke-dasharray:none;stroke-opacity:1"
       d="M 11,5 L 12,6 L 13,5 L 12,4 L 11,5 z "
       id="path3144" />
  </g>
</svg>
