<?xml version="1.0" encoding="UTF-8" standalone="no"?>
<!-- Created with Inkscape (http://www.inkscape.org/) -->
<svg
   xmlns:dc="http://purl.org/dc/elements/1.1/"
   xmlns:cc="http://creativecommons.org/ns#"
   xmlns:rdf="http://www.w3.org/1999/02/22-rdf-syntax-ns#"
   xmlns:svg="http://www.w3.org/2000/svg"
   xmlns="http://www.w3.org/2000/svg"
   xmlns:xlink="http://www.w3.org/1999/xlink"
   xmlns:sodipodi="http://sodipodi.sourceforge.net/DTD/sodipodi-0.dtd"
   xmlns:inkscape="http://www.inkscape.org/namespaces/inkscape"
   width="64px"
   height="64px"
   id="svg2310"
   sodipodi:version="0.32"
   inkscape:version="0.45+devel"
   sodipodi:docname="font-tag.svg"
   inkscape:output_extension="org.inkscape.output.svg.inkscape">
  <sodipodi:namedview
     id="base"
     pagecolor="#ffffff"
     bordercolor="#666666"
     borderopacity="1.0"
     inkscape:pageopacity="0.0"
     inkscape:pageshadow="2"
     inkscape:zoom="0.98922334"
     inkscape:cx="-0.99251646"
     inkscape:cy="108.01102"
     inkscape:current-layer="layer1"
     showgrid="true"
     inkscape:document-units="px"
     inkscape:grid-bbox="true"
     inkscape:window-width="641"
     inkscape:window-height="658"
     inkscape:window-x="279"
     inkscape:window-y="202"
     inkscape:object-paths="true"
     inkscape:object-nodes="true"
     inkscape:snap-intersection-line-segments="true"
     inkscape:snap-guide="true"
     inkscape:snap-center="true"
     objecttolerance="5" />
  <defs
     id="defs2312">
    <radialGradient
       r="5.171875"
       fy="58.000893"
       fx="93.754448"
       cy="58.000893"
       cx="93.754448"
       gradientTransform="matrix(2.3213164,0.5347427,-0.4786352,2.0777682,-13.214195,35.998469)"
       gradientUnits="userSpaceOnUse"
       id="radialGradient14986"
       xlink:href="#linearGradient12030"
       inkscape:collect="always" />
    <radialGradient
       gradientUnits="userSpaceOnUse"
       gradientTransform="matrix(1.7825207,3.1594937,-1.5483636,0.8735563,-63.066864,-637.44012)"
       r="37.867733"
       fy="141.2906"
       fx="230.35513"
       cy="141.2906"
       cx="230.35513"
       id="radialGradient7581"
       xlink:href="#linearGradient7583"
       inkscape:collect="always" />
    <linearGradient
       id="linearGradient7583"
       inkscape:collect="always">
      <stop
         id="stop7585"
         offset="0"
         style="stop-color:#000000;stop-opacity:1;" />
      <stop
         id="stop7587"
         offset="1"
         style="stop-color:#000000;stop-opacity:0;" />
    </linearGradient>
    <linearGradient
       id="linearGradient12030">
      <stop
         id="stop12032"
         offset="0"
         style="stop-color:#4e2a2a;stop-opacity:0;" />
      <stop
         id="stop12034"
         offset="1"
         style="stop-color:#888ea3;stop-opacity:1;" />
    </linearGradient>
    <linearGradient
       id="linearGradient21803">
      <stop
         id="stop21805"
         offset="0"
         style="stop-color:#000000;stop-opacity:1;" />
      <stop
         style="stop-color:#bcbcbc;stop-opacity:1;"
         offset="0.5"
         id="stop21811" />
      <stop
         id="stop21813"
         offset="0.75"
         style="stop-color:#000000;stop-opacity:1;" />
      <stop
         id="stop21807"
         offset="1"
         style="stop-color:#c6c6c6;stop-opacity:1;" />
    </linearGradient>
    <radialGradient
       id="path3787_1_"
       cx="317.72061"
       cy="371.81049"
       r="182.03979"
       gradientTransform="matrix(1.3286,0,0,2.1048,-161.1227,-218.4496)"
       gradientUnits="userSpaceOnUse">
      <stop
         offset="0"
         style="stop-color:#F2F2EC"
         id="stop3130" />
      <stop
         offset="1"
         style="stop-color:#FFCC66"
         id="stop3132" />
    </radialGradient>
    <linearGradient
       id="path3787_2_"
       gradientUnits="userSpaceOnUse"
       x1="313.37689"
       y1="447.8848"
       x2="459.92059"
       y2="266.35721">
      <stop
         offset="0"
         style="stop-color:#3C3C3C"
         id="stop3135" />
      <stop
         offset="1"
         style="stop-color:#CDCDCD"
         id="stop3137" />
    </linearGradient>
    <linearGradient
       id="path3789_1_"
       gradientUnits="userSpaceOnUse"
       x1="483.87009"
       y1="319.73001"
       x2="595.55969"
       y2="295.03641">
      <stop
         offset="0"
         style="stop-color:#000000"
         id="stop3141" />
      <stop
         offset="1"
         style="stop-color:#000000"
         id="stop3143" />
    </linearGradient>
  </defs>
  <metadata
     id="metadata2315">
    <rdf:RDF>
      <cc:Work
         rdf:about="">
        <dc:format>image/svg+xml</dc:format>
        <dc:type
           rdf:resource="http://purl.org/dc/dcmitype/StillImage" />
      </cc:Work>
    </rdf:RDF>
  </metadata>
  <g
     id="layer1"
     inkscape:label="Layer 1"
     inkscape:groupmode="layer">
    <rect
       style="opacity:1;fill:#9c0f0f;fill-opacity:1;stroke:none;stroke-width:1;stroke-miterlimit:4;stroke-dasharray:none;stroke-opacity:1"
       id="rect2318"
       width="64"
       height="64"
       x="4.181818"
       y="5.4545455"
       transform="matrix(0.7900766,0.2117004,-0.2117004,0.7900766,11.433643,-5.1607564)" />
    <path
       style="fill:#ffffff;fill-opacity:1;stroke:none;stroke-width:34.78666306"
       id="path3787"
       d="M 209.72,303.915 C 126.96225,303.94654 107.3898,344.90621 107.428,405.878 L 107.676,801.666 L 414.573,801.549 L 414.421,405.762 C 414.39515,338.46021 380.22816,303.85002 312.05,303.876 L 209.72,303.915 z M 260.93714,357.02687 C 307.66667,357.02687 320.46197,388.40742 320.47314,421.39858 C 320.4843,454.38603 305.61466,484.0539 260.97734,484.0539 C 218.47939,484.0539 201.30903,454.43067 201.29786,421.44324 C 201.2867,388.45579 214.16255,357.02687 260.93714,357.02687 z"
       transform="matrix(5.8356096e-2,6.0206175e-2,-5.8356096e-2,6.0206175e-2,44.863398,-16.658056)" />
    <path
       sodipodi:type="inkscape:offset"
       inkscape:radius="1.1645398"
       inkscape:original="M 42.03125 2.40625 C 38.60983 2.3024082 34.888901 3.276731 32.59375 5.96875 C 29.916822 9.3204097 29.376715 13.816507 29.625 17.96875 C 30.061138 19.735512 29.627805 21.558608 29.875 23.34375 C 29.810433 24.383207 30.7519 25.247125 31.75 25.28125 C 32.797954 25.443487 33.548693 24.507963 33.625 23.53125 C 34.216772 19.431772 32.915375 15.178756 34.21875 11.15625 C 34.846003 8.6073038 37.237971 6.7964432 39.78125 6.46875 C 41.833508 6.0785349 43.858726 6.8379592 45.71875 7.625 C 46.789898 8.418911 48.343202 7.1033197 47.96875 5.90625 C 47.105464 3.5268 44.423992 2.3515401 42.03125 2.40625 z "
       style="opacity:1;fill:#ffffff;fill-opacity:1;stroke:none;stroke-width:1;stroke-miterlimit:4;stroke-dasharray:none;stroke-opacity:1"
       id="path2958"
       d="M 42,1.25 C 38.348204,1.1519808 34.312431,2.1765809 31.71875,5.21875 C 31.708137,5.2289681 31.697718,5.2393866 31.6875,5.25 C 28.741312,8.9387879 28.211469,13.728562 28.46875,18.03125 C 28.47221,18.104992 28.482674,18.178239 28.5,18.25 C 28.833956,19.602831 28.496453,21.317023 28.71875,23.28125 C 28.728398,23.366497 28.706798,23.413691 28.71875,23.5 L 28.75,23.5 C 28.775562,25.097382 30.064502,26.23994 31.5625,26.375 L 31.5625,26.4375 C 31.60497,26.444075 31.645198,26.433151 31.6875,26.4375 C 31.698075,26.438587 31.708188,26.436549 31.71875,26.4375 C 32.561231,26.513345 33.363392,26.179506 33.875,25.65625 C 34.401615,25.117645 34.678265,24.416424 34.75,23.6875 L 34.78125,23.6875 C 34.784384,23.665789 34.778206,23.646697 34.78125,23.625 C 35.402358,19.198448 34.15904,15.059835 35.3125,11.5 C 35.323539,11.479484 35.333961,11.458641 35.34375,11.4375 C 35.837435,9.4313307 37.841733,7.8950327 39.9375,7.625 C 39.95833,7.6255591 39.97917,7.6255591 40,7.625 C 41.641761,7.3128366 43.421769,7.9139117 45.25,8.6875 L 45.28125,8.625 C 46.242746,9.1715306 47.402867,9.0136299 48.125,8.4375 C 48.906996,7.8136103 49.454237,6.714927 49.09375,5.5625 C 49.083961,5.5413588 49.073539,5.5205161 49.0625,5.5 C 47.985356,2.5310988 44.841278,1.2068852 42.0625,1.25 C 42.042134,1.250316 42.020326,1.2495352 42,1.25 z"
       transform="matrix(0.5817789,0.5895538,-0.5817789,0.5895538,31.060922,-8.5169615)" />
  </g>
</svg>
