/* XPM */
static char * fileopen_xpm[] = {
"32 32 239 2",
"  	c None",
". 	c #000000",
"+ 	c #A57B00",
"@ 	c #BB8B00",
"# 	c #CC9800",
"$ 	c #C89500",
"% 	c #B28500",
"& 	c #674D00",
"* 	c #D2A31C",
"= 	c #F1E0B6",
"- 	c #FEEAC3",
"; 	c #F7EACE",
"> 	c #6D5200",
", 	c #B68800",
"' 	c #EBD69E",
") 	c #FEDC95",
"! 	c #FDCB63",
"~ 	c #F4DDAF",
"{ 	c #C69812",
"] 	c #A59874",
"^ 	c #BABCBC",
"/ 	c #C49200",
"( 	c #E0C264",
"_ 	c #FAEBCA",
": 	c #FFE2A5",
"< 	c #F2C564",
"[ 	c #F1C15E",
"} 	c #F8C760",
"| 	c #AA965C",
"1 	c #A7A8A6",
"2 	c #E9EAEC",
"3 	c #D7AE37",
"4 	c #FDE5B4",
"5 	c #FBCC6A",
"6 	c #EDC164",
"7 	c #E4BA61",
"8 	c #B49755",
"9 	c #A7A399",
"0 	c #F1F3F5",
"a 	c #E7DEC2",
"b 	c #956F00",
"c 	c #7A5A00",
"d 	c #FED682",
"e 	c #E1B85F",
"f 	c #C4A158",
"g 	c #978C75",
"h 	c #D1D1CF",
"i 	c #E1C981",
"j 	c #E4C87A",
"k 	c #E9BE63",
"l 	c #D2AB59",
"m 	c #978864",
"n 	c #231A00",
"o 	c #AC8000",
"p 	c #FED88B",
"q 	c #EED9A9",
"r 	c #F6C868",
"s 	c #E0B75F",
"t 	c #978657",
"u 	c #ECEEF0",
"v 	c #E8E6E0",
"w 	c #B57B00",
"x 	c #AB6700",
"y 	c #B87E00",
"z 	c #9D7500",
"A 	c #F8E5BB",
"B 	c #FED175",
"C 	c #FFD06C",
"D 	c #A89156",
"E 	c #9A9A96",
"F 	c #EEF0F2",
"G 	c #E4E6E8",
"H 	c #DADCDE",
"I 	c #CEAE69",
"J 	c #D3AD66",
"K 	c #FFF3CC",
"L 	c #FFF0BC",
"M 	c #8E8572",
"N 	c #DEE0E2",
"O 	c #C6BFA6",
"P 	c #998445",
"Q 	c #B58E3A",
"R 	c #FFEDAE",
"S 	c #F4E9C3",
"T 	c #A45D00",
"U 	c #CFA95A",
"V 	c #C5C7C8",
"W 	c #DCDEE0",
"X 	c #C8C6B7",
"Y 	c #7A631D",
"Z 	c #BBB298",
"` 	c #FFF1C1",
" .	c #FFE68A",
"..	c #ECD686",
"+.	c #AA7300",
"@.	c #E4B34B",
"#.	c #DDB45E",
"$.	c #B5B6B4",
"%.	c #D1D3D4",
"&.	c #B3A46C",
"*.	c #745B0F",
"=.	c #F1D56D",
"-.	c #DAC269",
";.	c #E0CD91",
">.	c #A26100",
",.	c #352600",
"'.	c #A48952",
").	c #D6D8DA",
"!.	c #BDB088",
"~.	c #8C752A",
"{.	c #776535",
"].	c #E7DCB9",
"^.	c #FFEEB4",
"/.	c #F5D972",
"(.	c #E9CD65",
"_.	c #D6BC5B",
":.	c #B77E28",
"<.	c #835A00",
"[.	c #E7E9EA",
"}.	c #735626",
"|.	c #0000A0",
"1.	c #DDC159",
"2.	c #CDB14B",
"3.	c #E5C961",
"4.	c #D4C176",
"5.	c #866400",
"6.	c #DAAB48",
"7.	c #CEA857",
"8.	c #977C40",
"9.	c #C7C8CA",
"0.	c #AD9A65",
"a.	c #A29B7A",
"b.	c #FFF6DA",
"c.	c #483F50",
"d.	c #D9BD56",
"e.	c #DAC789",
"f.	c #9C6100",
"g.	c #130E00",
"h.	c #CAA746",
"i.	c #B5934D",
"j.	c #665736",
"k.	c #7A672E",
"l.	c #EBE1C5",
"m.	c #FFE893",
"n.	c #000050",
"o.	c #DBCA8B",
"p.	c #B0731A",
"q.	c #775500",
"r.	c #C29840",
"s.	c #75726E",
"t.	c #CFC8B1",
"u.	c #FEE27C",
"v.	c #C29B4E",
"w.	c #8A5C00",
"x.	c #E3CEA3",
"y.	c #A38845",
"z.	c #ADA583",
"A.	c #F8F4E8",
"B.	c #CEBE7F",
"C.	c #966100",
"D.	c #D6C699",
"E.	c #A78337",
"F.	c #8C723B",
"G.	c #4A3D22",
"H.	c #CCCECF",
"I.	c #B5A97A",
"J.	c #C8AC45",
"K.	c #AA680D",
"L.	c #6D4D00",
"M.	c #D0BC95",
"N.	c #977939",
"O.	c #484233",
"P.	c #DBD3BA",
"Q.	c #C6B38E",
"R.	c #CDCED0",
"S.	c #54420D",
"T.	c #D5C489",
"U.	c #D4B951",
"V.	c #BBAC86",
"W.	c #856B2A",
"X.	c #5B4B24",
"Y.	c #8F9192",
"Z.	c #BDA959",
"`.	c #AB7A00",
" +	c #A79F83",
".+	c #785E27",
"++	c #3B311C",
"@+	c #ADAEB0",
"#+	c #78704F",
"$+	c #BCA039",
"%+	c #D1B54D",
"&+	c #A79775",
"*+	c #484338",
"=+	c #8B8264",
"-+	c #4D421A",
";+	c #BEB37B",
">+	c #B39D45",
",+	c #64564A",
"'+	c #363054",
")+	c #A07700",
"!+	c #9F9072",
"~+	c #6C5423",
"{+	c #5C5956",
"]+	c #4A3E16",
"^+	c #D5BE64",
"/+	c #D2C283",
"(+	c #CCAD67",
"_+	c #795200",
":+	c #4E4529",
"<+	c #897F59",
"[+	c #B49936",
"}+	c #CBB358",
"|+	c #D8C67F",
"1+	c #6E4F17",
"2+	c #AF9535",
"3+	c #CAB152",
"4+	c #D4BF6D",
"5+	c #DBCD94",
"6+	c #B88633",
"7+	c #624500",
"8+	c #764B0A",
"9+	c #A28B31",
"0+	c #D2B753",
"a+	c #CCB662",
"b+	c #D3BE80",
"c+	c #AB984A",
"d+	c #9C821D",
"e+	c #C5AC50",
"f+	c #CEB775",
"g+	c #4F3B00",
"h+	c #8D4F00",
"i+	c #C5C29D",
"j+	c #9F8A35",
"k+	c #433100",
"l+	c #D1C9A6",
"m+	c #CAA65D",
"n+	c #161100",
"o+	c #815700",
"p+	c #0B0900",
"                                      . + @ # $ % .             ",
"                                    & @ * = - ; @ > @ # @ .     ",
"                                . , $ ' - ) ! ~ # { ] ^ # .     ",
"                            . , / ( _ : < [ } ~ | 1 2 2 , .     ",
"                        . + @ 3 _ 4 5 [ 6 7 8 9 2 0 0 a b .     ",
"            . , @ c   & @ * = 4 d e < 7 f g h 0 0 0 0 i > .     ",
"        . , / j ' $ % $ ' - ) [ < k l m ^ 0 0 0 0 0 0 * n .     ",
"    . o @ 7 _ 4 p 4 q - : r [ 6 s t 1 0 0 0 0 0 u 2 v + w x y c ",
". z @ 3 A 4 B [ C B d C 6 6 e D E 2 0 F F F u 2 G H I x J K J w ",
". @ q L p } 5 5 C C r 6 7 f M H 0 0 0 F F u N H O P Q = K R S T ",
". # - < ! C 5 5 r 6 k U t V 0 0 0 0 F u G W X | Y Z ` K  ...I +.",
". # 4 @.5 5 5 < k #.t $.0 0 0 0 0 u u N %.&.*.] S L  .=.-.;.>.,.",
". # 4 @.r r k s '.9 2 0 0 0 0 u 2 G ).!.~.{.].^.L /.(._.;.:.<.. ",
". # 4 @.< 7 J g W 0 0 0 0 F 2 [.H X P }.|.|.|.|.1.2.3.4.U 5.. . ",
". # 4 6.7 7.8.9.0 0 0 F u 2 N %.0.*.a.b.|.|.|.|.c.d.-.e.f.g.. . ",
". # ~ h.7.i.j.0 0 F F 2 N ).!.k.t l.^.m.|.|.|.|.n._.o.p.q.. .   ",
". $ q r.i.P s.F F 2 G W t.P k.t.` ` u.1.|.|.|.|.n.4.v.w.. . .   ",
". / x.Q y.{.E u 2 N h | *.z.A.` u.=.1.d.|.|.|.|.n.B.C.. . .     ",
". / D.E.F.G.H.N ).I.Y m S ` m.=.(.2.1.J.|.|.|.|.n.K.L.. .       ",
". @ M.N.{.O.W %.t {.P.K L /.|.|.|.|.|.|.|.|.|.|.|.|.|.|.|.|.    ",
". , Q.~.j.s.R.z.S.T.^.u.(.U.|.|.|.|.|.|.|.|.|.|.|.|.|.|.|.|.n.  ",
". % V.W.X.Y.$.X.a.Z.1.1.d.1.|.|.|.|.|.|.|.|.|.|.|.|.|.|.|.|.n.  ",
". `. +.+++@+{.#+Z.$+d.1.%+2.|.|.|.|.|.|.|.|.|.|.|.|.|.|.|.|.n.  ",
". +.&+}.*+=+-+;+>+1.1.1.2.$+,+'+n.n.n.n.|.|.|.|.n.n.n.n.n.n.n.  ",
". )+!+~+{+]+z.>+2.1.U.d.J.^+/+(+K._+. . |.|.|.|.n.n.n.          ",
". z !+~+:+<+Z.[+1.J.U.}+|+/+p.w.n . . . |.|.|.|.n.              ",
". z ] 1+.+&.2+%+U.3+4+5+6+f.7+. . . . . |.|.|.|.n.              ",
". )+&+8+I.9+[+0+a+b+I >._+. . . . . .   |.|.|.|.n.              ",
". 5.E.0.c+d+e+/+f+p.c n . . . . .       |.|.|.|.n.              ",
". g+h+i+j+4.o.6+C.k+. . . . .             n.n.n.n.              ",
". . w.8 l+m+f.L.. . . . . .                                     ",
". . n+<.T o+p+. . . . .                                         "};
